<mxfile host="Electron" modified="2023-07-10T01:42:10.462Z" agent="Mozilla/5.0 (Windows NT 10.0; Win64; x64) AppleWebKit/537.36 (KHTML, like Gecko) draw.io/21.6.1 Chrome/112.0.5615.204 Electron/24.6.1 Safari/537.36" etag="w0R_A51QTWUahRisg3Ok" version="21.6.1" type="device">
  <diagram name="Página-1" id="RluYDqkaNvIjStyAPSZ0">
    <mxGraphModel dx="2403" dy="2388" grid="1" gridSize="10" guides="1" tooltips="1" connect="1" arrows="1" fold="1" page="1" pageScale="1" pageWidth="1169" pageHeight="1654" math="0" shadow="0">
      <root>
        <mxCell id="0" />
        <mxCell id="1" parent="0" />
        <mxCell id="AUGBW6buldF1Hwq6hiQr-39" value="&lt;br style=&quot;font-size: 14px;&quot;&gt;Generacion eléctrica" style="whiteSpace=wrap;html=1;aspect=fixed;fontStyle=1;fontSize=14;" parent="1" vertex="1">
          <mxGeometry x="130" y="365" width="90" height="90" as="geometry" />
        </mxCell>
        <mxCell id="AUGBW6buldF1Hwq6hiQr-40" value="Technology" style="ellipse;whiteSpace=wrap;html=1;align=center;fontStyle=0" parent="1" vertex="1">
          <mxGeometry x="-20" y="390" width="100" height="40" as="geometry" />
        </mxCell>
        <mxCell id="AUGBW6buldF1Hwq6hiQr-41" value="&lt;span style=&quot;color: rgb(0, 0, 0); font-family: Helvetica; font-size: 12px; font-style: normal; font-variant-ligatures: normal; font-variant-caps: normal; letter-spacing: normal; orphans: 2; text-align: left; text-indent: 0px; text-transform: none; widows: 2; word-spacing: 0px; -webkit-text-stroke-width: 0px; background-color: rgb(251, 251, 251); float: none; display: inline !important;&quot;&gt;Grid_connection&lt;/span&gt;" style="ellipse;whiteSpace=wrap;html=1;align=center;fontStyle=0" parent="1" vertex="1">
          <mxGeometry x="270" y="390" width="100" height="40" as="geometry" />
        </mxCell>
        <mxCell id="AUGBW6buldF1Hwq6hiQr-42" value="" style="endArrow=none;html=1;rounded=0;entryX=0.5;entryY=1;entryDx=0;entryDy=0;exitX=0;exitY=0.25;exitDx=0;exitDy=0;" parent="1" source="AUGBW6buldF1Hwq6hiQr-39" edge="1">
          <mxGeometry width="50" height="50" relative="1" as="geometry">
            <mxPoint x="360" y="445" as="sourcePoint" />
            <mxPoint x="80" y="365" as="targetPoint" />
          </mxGeometry>
        </mxCell>
        <mxCell id="AUGBW6buldF1Hwq6hiQr-43" value="" style="endArrow=none;html=1;rounded=0;entryX=1;entryY=0.5;entryDx=0;entryDy=0;exitX=0;exitY=0.5;exitDx=0;exitDy=0;" parent="1" source="AUGBW6buldF1Hwq6hiQr-39" target="AUGBW6buldF1Hwq6hiQr-40" edge="1">
          <mxGeometry width="50" height="50" relative="1" as="geometry">
            <mxPoint x="140" y="420" as="sourcePoint" />
            <mxPoint x="90" y="375" as="targetPoint" />
          </mxGeometry>
        </mxCell>
        <mxCell id="AUGBW6buldF1Hwq6hiQr-44" value="" style="endArrow=none;html=1;rounded=0;entryX=0;entryY=0.5;entryDx=0;entryDy=0;exitX=1;exitY=0.5;exitDx=0;exitDy=0;" parent="1" source="AUGBW6buldF1Hwq6hiQr-39" target="AUGBW6buldF1Hwq6hiQr-41" edge="1">
          <mxGeometry width="50" height="50" relative="1" as="geometry">
            <mxPoint x="140" y="420" as="sourcePoint" />
            <mxPoint x="90" y="420" as="targetPoint" />
          </mxGeometry>
        </mxCell>
        <mxCell id="AUGBW6buldF1Hwq6hiQr-45" value="Pais" style="ellipse;whiteSpace=wrap;html=1;align=center;fontStyle=0;" parent="1" vertex="1">
          <mxGeometry x="20" y="325" width="100" height="40" as="geometry" />
        </mxCell>
        <mxCell id="AUGBW6buldF1Hwq6hiQr-46" value="Año" style="ellipse;whiteSpace=wrap;html=1;align=center;" parent="1" vertex="1">
          <mxGeometry x="125" y="290" width="100" height="40" as="geometry" />
        </mxCell>
        <mxCell id="AUGBW6buldF1Hwq6hiQr-47" value="Installed_&lt;br&gt;electricity_&lt;br&gt;capacity_(MW)" style="ellipse;whiteSpace=wrap;html=1;align=center;" parent="1" vertex="1">
          <mxGeometry x="225" y="315" width="110" height="60" as="geometry" />
        </mxCell>
        <mxCell id="AUGBW6buldF1Hwq6hiQr-48" value="" style="endArrow=none;html=1;rounded=0;entryX=0.5;entryY=1;entryDx=0;entryDy=0;exitX=0.5;exitY=0;exitDx=0;exitDy=0;" parent="1" source="AUGBW6buldF1Hwq6hiQr-39" target="AUGBW6buldF1Hwq6hiQr-46" edge="1">
          <mxGeometry width="50" height="50" relative="1" as="geometry">
            <mxPoint x="180" y="365" as="sourcePoint" />
            <mxPoint x="130" y="342" as="targetPoint" />
          </mxGeometry>
        </mxCell>
        <mxCell id="AUGBW6buldF1Hwq6hiQr-49" value="" style="endArrow=none;html=1;rounded=0;entryX=0;entryY=1;entryDx=0;entryDy=0;exitX=0.998;exitY=0.119;exitDx=0;exitDy=0;exitPerimeter=0;" parent="1" source="AUGBW6buldF1Hwq6hiQr-39" target="AUGBW6buldF1Hwq6hiQr-47" edge="1">
          <mxGeometry width="50" height="50" relative="1" as="geometry">
            <mxPoint x="150" y="408" as="sourcePoint" />
            <mxPoint x="100" y="385" as="targetPoint" />
          </mxGeometry>
        </mxCell>
        <mxCell id="tZhHeFERiyD3COQi5UW2-12" value="Exportaciones de litio" style="whiteSpace=wrap;html=1;aspect=fixed;fontSize=14;fontStyle=1" parent="1" vertex="1">
          <mxGeometry x="734" y="65" width="126" height="126" as="geometry" />
        </mxCell>
        <mxCell id="tZhHeFERiyD3COQi5UW2-13" value="&lt;div style=&quot;font-size: medium; text-align: start;&quot; data-ccp-timestamp=&quot;1688165123405&quot;&gt;&lt;table style=&quot;border-collapse: collapse; width: 60pt;&quot; width=&quot;80&quot;&gt;&lt;colgroup&gt;&lt;col style=&quot;width: 60pt;&quot; width=&quot;80&quot;&gt;&lt;/colgroup&gt;&lt;tbody&gt;&lt;tr style=&quot;height: 15pt;&quot; height=&quot;20&quot;&gt;&lt;td style=&quot;padding-top: 1px; padding-right: 1px; padding-left: 1px; font-size: 11pt; font-family: Calibri, sans-serif; vertical-align: bottom; border: none; width: 60pt; height: 15pt;&quot; height=&quot;20&quot; width=&quot;80&quot;&gt;Suma_de_FOB&lt;/td&gt;&lt;/tr&gt;&lt;/tbody&gt;&lt;/table&gt;&lt;/div&gt;" style="ellipse;whiteSpace=wrap;html=1;align=center;" parent="1" vertex="1">
          <mxGeometry x="813" y="-50" width="100" height="40" as="geometry" />
        </mxCell>
        <mxCell id="tZhHeFERiyD3COQi5UW2-14" value="" style="endArrow=none;html=1;rounded=0;exitX=0.5;exitY=0;exitDx=0;exitDy=0;entryX=0.5;entryY=1;entryDx=0;entryDy=0;" parent="1" source="tZhHeFERiyD3COQi5UW2-12" target="tZhHeFERiyD3COQi5UW2-13" edge="1">
          <mxGeometry width="50" height="50" relative="1" as="geometry">
            <mxPoint x="744" y="120" as="sourcePoint" />
            <mxPoint x="854" y="20" as="targetPoint" />
          </mxGeometry>
        </mxCell>
        <mxCell id="tZhHeFERiyD3COQi5UW2-15" value="Año" style="ellipse;whiteSpace=wrap;html=1;align=center;fontStyle=5" parent="1" vertex="1">
          <mxGeometry x="683" y="-20" width="100" height="40" as="geometry" />
        </mxCell>
        <mxCell id="tZhHeFERiyD3COQi5UW2-16" value="" style="endArrow=none;html=1;rounded=0;entryX=0.5;entryY=1;entryDx=0;entryDy=0;exitX=0.5;exitY=0;exitDx=0;exitDy=0;" parent="1" source="tZhHeFERiyD3COQi5UW2-12" target="tZhHeFERiyD3COQi5UW2-15" edge="1">
          <mxGeometry width="50" height="50" relative="1" as="geometry">
            <mxPoint x="784" y="65" as="sourcePoint" />
            <mxPoint x="734" y="42" as="targetPoint" />
          </mxGeometry>
        </mxCell>
        <mxCell id="tZhHeFERiyD3COQi5UW2-18" value="&lt;div style=&quot;font-size: medium; text-align: start;&quot; data-ccp-timestamp=&quot;1688165123405&quot;&gt;Destino&lt;br&gt;&lt;/div&gt;" style="ellipse;whiteSpace=wrap;html=1;align=center;" parent="1" vertex="1">
          <mxGeometry x="933" y="-30" width="100" height="40" as="geometry" />
        </mxCell>
        <mxCell id="tZhHeFERiyD3COQi5UW2-19" value="" style="endArrow=none;html=1;rounded=0;entryX=0;entryY=0.5;entryDx=0;entryDy=0;exitX=0.5;exitY=0;exitDx=0;exitDy=0;" parent="1" source="tZhHeFERiyD3COQi5UW2-12" target="tZhHeFERiyD3COQi5UW2-18" edge="1">
          <mxGeometry width="50" height="50" relative="1" as="geometry">
            <mxPoint x="784" y="60" as="sourcePoint" />
            <mxPoint x="864" y="70" as="targetPoint" />
          </mxGeometry>
        </mxCell>
        <mxCell id="tZhHeFERiyD3COQi5UW2-37" style="edgeStyle=orthogonalEdgeStyle;rounded=0;orthogonalLoop=1;jettySize=auto;html=1;entryX=0.5;entryY=1;entryDx=0;entryDy=0;exitX=0;exitY=0;exitDx=0;exitDy=0;" parent="1" source="tZhHeFERiyD3COQi5UW2-139" target="tZhHeFERiyD3COQi5UW2-27" edge="1">
          <mxGeometry relative="1" as="geometry">
            <mxPoint x="540" y="550" as="sourcePoint" />
          </mxGeometry>
        </mxCell>
        <mxCell id="tZhHeFERiyD3COQi5UW2-45" style="edgeStyle=orthogonalEdgeStyle;rounded=0;orthogonalLoop=1;jettySize=auto;html=1;entryX=0.5;entryY=1;entryDx=0;entryDy=0;exitX=0.5;exitY=0;exitDx=0;exitDy=0;" parent="1" source="tZhHeFERiyD3COQi5UW2-139" target="tZhHeFERiyD3COQi5UW2-44" edge="1">
          <mxGeometry relative="1" as="geometry">
            <mxPoint x="810" y="370" as="sourcePoint" />
            <mxPoint x="725" y="249.95" as="targetPoint" />
          </mxGeometry>
        </mxCell>
        <mxCell id="tZhHeFERiyD3COQi5UW2-62" style="edgeStyle=orthogonalEdgeStyle;rounded=0;orthogonalLoop=1;jettySize=auto;html=1;entryX=0.5;entryY=1;entryDx=0;entryDy=0;exitX=0.16;exitY=0.055;exitDx=0;exitDy=0;exitPerimeter=0;" parent="1" source="tZhHeFERiyD3COQi5UW2-139" target="tZhHeFERiyD3COQi5UW2-61" edge="1">
          <mxGeometry relative="1" as="geometry">
            <Array as="points">
              <mxPoint x="820" y="460" />
              <mxPoint x="435" y="460" />
            </Array>
            <mxPoint x="820" y="540" as="sourcePoint" />
          </mxGeometry>
        </mxCell>
        <mxCell id="tZhHeFERiyD3COQi5UW2-115" style="edgeStyle=orthogonalEdgeStyle;rounded=0;orthogonalLoop=1;jettySize=auto;html=1;entryX=0;entryY=0.5;entryDx=0;entryDy=0;exitX=0.75;exitY=0;exitDx=0;exitDy=0;" parent="1" source="tZhHeFERiyD3COQi5UW2-139" target="tZhHeFERiyD3COQi5UW2-111" edge="1">
          <mxGeometry relative="1" as="geometry">
            <mxPoint x="990" y="530" as="sourcePoint" />
          </mxGeometry>
        </mxCell>
        <mxCell id="tZhHeFERiyD3COQi5UW2-21" value="&lt;div style=&quot;font-size: 11px; text-align: start;&quot; data-ccp-timestamp=&quot;1688165123405&quot;&gt;Nombre_pais&lt;/div&gt;" style="ellipse;whiteSpace=wrap;html=1;align=center;fontSize=11;" parent="1" vertex="1">
          <mxGeometry x="1080" y="562.5" width="100" height="40" as="geometry" />
        </mxCell>
        <mxCell id="tZhHeFERiyD3COQi5UW2-23" value="Id_pais" style="ellipse;whiteSpace=wrap;html=1;align=center;fontStyle=5;fontSize=20;" parent="1" vertex="1">
          <mxGeometry x="570" y="642" width="100" height="40" as="geometry" />
        </mxCell>
        <mxCell id="tZhHeFERiyD3COQi5UW2-24" value="" style="endArrow=none;html=1;rounded=0;exitX=0;exitY=0.75;exitDx=0;exitDy=0;" parent="1" source="tZhHeFERiyD3COQi5UW2-139" edge="1">
          <mxGeometry width="50" height="50" relative="1" as="geometry">
            <mxPoint x="349" y="299.5" as="sourcePoint" />
            <mxPoint x="660" y="652.5" as="targetPoint" />
          </mxGeometry>
        </mxCell>
        <mxCell id="tZhHeFERiyD3COQi5UW2-38" style="edgeStyle=orthogonalEdgeStyle;rounded=0;orthogonalLoop=1;jettySize=auto;html=1;exitX=0;exitY=0.5;exitDx=0;exitDy=0;entryX=0.398;entryY=0.999;entryDx=0;entryDy=0;entryPerimeter=0;" parent="1" source="tZhHeFERiyD3COQi5UW2-27" target="AUGBW6buldF1Hwq6hiQr-39" edge="1">
          <mxGeometry relative="1" as="geometry" />
        </mxCell>
        <mxCell id="tZhHeFERiyD3COQi5UW2-27" value="Registra" style="shape=rhombus;perimeter=rhombusPerimeter;whiteSpace=wrap;html=1;align=center;" parent="1" vertex="1">
          <mxGeometry x="310" y="480" width="110" height="60" as="geometry" />
        </mxCell>
        <mxCell id="tZhHeFERiyD3COQi5UW2-85" style="edgeStyle=orthogonalEdgeStyle;rounded=0;orthogonalLoop=1;jettySize=auto;html=1;entryX=1;entryY=0.5;entryDx=0;entryDy=0;exitX=0;exitY=0.5;exitDx=0;exitDy=0;" parent="1" source="tZhHeFERiyD3COQi5UW2-139" target="tZhHeFERiyD3COQi5UW2-83" edge="1">
          <mxGeometry relative="1" as="geometry">
            <mxPoint x="540" y="630" as="sourcePoint" />
            <Array as="points">
              <mxPoint x="632" y="594" />
              <mxPoint x="632" y="610" />
              <mxPoint x="460" y="610" />
            </Array>
          </mxGeometry>
        </mxCell>
        <mxCell id="tZhHeFERiyD3COQi5UW2-40" value="N" style="text;strokeColor=none;align=center;fillColor=none;html=1;verticalAlign=middle;whiteSpace=wrap;rounded=0;" parent="1" vertex="1">
          <mxGeometry x="170" y="460" width="55" height="30" as="geometry" />
        </mxCell>
        <mxCell id="tZhHeFERiyD3COQi5UW2-46" style="edgeStyle=orthogonalEdgeStyle;rounded=0;orthogonalLoop=1;jettySize=auto;html=1;exitX=0.5;exitY=0;exitDx=0;exitDy=0;entryX=0.5;entryY=1;entryDx=0;entryDy=0;" parent="1" source="tZhHeFERiyD3COQi5UW2-44" target="tZhHeFERiyD3COQi5UW2-12" edge="1">
          <mxGeometry relative="1" as="geometry" />
        </mxCell>
        <mxCell id="tZhHeFERiyD3COQi5UW2-44" value="Registra" style="shape=rhombus;perimeter=rhombusPerimeter;whiteSpace=wrap;html=1;align=center;" parent="1" vertex="1">
          <mxGeometry x="680" y="240" width="110" height="60" as="geometry" />
        </mxCell>
        <mxCell id="tZhHeFERiyD3COQi5UW2-49" value="N" style="text;strokeColor=none;align=center;fillColor=none;html=1;verticalAlign=middle;whiteSpace=wrap;rounded=0;" parent="1" vertex="1">
          <mxGeometry x="830" y="510" width="60" height="30" as="geometry" />
        </mxCell>
        <mxCell id="tZhHeFERiyD3COQi5UW2-51" value="N" style="text;strokeColor=none;align=center;fillColor=none;html=1;verticalAlign=middle;whiteSpace=wrap;rounded=0;" parent="1" vertex="1">
          <mxGeometry x="790" y="191" width="60" height="30" as="geometry" />
        </mxCell>
        <mxCell id="tZhHeFERiyD3COQi5UW2-52" value="Producción Litio&amp;nbsp;" style="whiteSpace=wrap;html=1;aspect=fixed;fontStyle=1;fontSize=14;" parent="1" vertex="1">
          <mxGeometry x="300" y="75" width="100" height="100" as="geometry" />
        </mxCell>
        <mxCell id="tZhHeFERiyD3COQi5UW2-53" value="&lt;div style=&quot;font-size: 11px; text-align: start;&quot; data-ccp-timestamp=&quot;1688165123405&quot;&gt;Miles_de_tns_LCE&lt;br style=&quot;font-size: 11px;&quot;&gt;&lt;/div&gt;" style="ellipse;whiteSpace=wrap;html=1;align=center;fontSize=11;" parent="1" vertex="1">
          <mxGeometry x="350" y="-40" width="100" height="40" as="geometry" />
        </mxCell>
        <mxCell id="tZhHeFERiyD3COQi5UW2-54" value="" style="endArrow=none;html=1;rounded=0;exitX=0.5;exitY=0;exitDx=0;exitDy=0;entryX=0.5;entryY=1;entryDx=0;entryDy=0;" parent="1" source="tZhHeFERiyD3COQi5UW2-52" target="tZhHeFERiyD3COQi5UW2-53" edge="1">
          <mxGeometry width="50" height="50" relative="1" as="geometry">
            <mxPoint x="310" y="130" as="sourcePoint" />
            <mxPoint x="420" y="30" as="targetPoint" />
          </mxGeometry>
        </mxCell>
        <mxCell id="tZhHeFERiyD3COQi5UW2-55" value="Año" style="ellipse;whiteSpace=wrap;html=1;align=center;fontStyle=0;fontSize=14;" parent="1" vertex="1">
          <mxGeometry x="220" y="-10" width="100" height="40" as="geometry" />
        </mxCell>
        <mxCell id="tZhHeFERiyD3COQi5UW2-56" value="" style="endArrow=none;html=1;rounded=0;entryX=0.5;entryY=1;entryDx=0;entryDy=0;exitX=0.5;exitY=0;exitDx=0;exitDy=0;" parent="1" source="tZhHeFERiyD3COQi5UW2-52" target="tZhHeFERiyD3COQi5UW2-55" edge="1">
          <mxGeometry width="50" height="50" relative="1" as="geometry">
            <mxPoint x="350" y="75" as="sourcePoint" />
            <mxPoint x="300" y="52" as="targetPoint" />
          </mxGeometry>
        </mxCell>
        <mxCell id="tZhHeFERiyD3COQi5UW2-57" value="&lt;div style=&quot;font-size: medium; text-align: start;&quot; data-ccp-timestamp=&quot;1688165123405&quot;&gt;Pais&lt;br&gt;&lt;/div&gt;" style="ellipse;whiteSpace=wrap;html=1;align=center;fontStyle=0" parent="1" vertex="1">
          <mxGeometry x="470" y="-20" width="100" height="40" as="geometry" />
        </mxCell>
        <mxCell id="tZhHeFERiyD3COQi5UW2-58" value="" style="endArrow=none;html=1;rounded=0;entryX=0;entryY=0.5;entryDx=0;entryDy=0;exitX=0.5;exitY=0;exitDx=0;exitDy=0;" parent="1" source="tZhHeFERiyD3COQi5UW2-52" target="tZhHeFERiyD3COQi5UW2-57" edge="1">
          <mxGeometry width="50" height="50" relative="1" as="geometry">
            <mxPoint x="350" y="70" as="sourcePoint" />
            <mxPoint x="430" y="80" as="targetPoint" />
          </mxGeometry>
        </mxCell>
        <mxCell id="tZhHeFERiyD3COQi5UW2-59" value="N" style="text;strokeColor=none;align=center;fillColor=none;html=1;verticalAlign=middle;whiteSpace=wrap;rounded=0;" parent="1" vertex="1">
          <mxGeometry x="360" y="175" width="60" height="30" as="geometry" />
        </mxCell>
        <mxCell id="tZhHeFERiyD3COQi5UW2-65" style="edgeStyle=orthogonalEdgeStyle;rounded=0;orthogonalLoop=1;jettySize=auto;html=1;exitX=0.5;exitY=0;exitDx=0;exitDy=0;" parent="1" source="tZhHeFERiyD3COQi5UW2-61" target="tZhHeFERiyD3COQi5UW2-52" edge="1">
          <mxGeometry relative="1" as="geometry" />
        </mxCell>
        <mxCell id="tZhHeFERiyD3COQi5UW2-61" value="Genera" style="shape=rhombus;perimeter=rhombusPerimeter;whiteSpace=wrap;html=1;align=center;" parent="1" vertex="1">
          <mxGeometry x="380" y="250" width="110" height="60" as="geometry" />
        </mxCell>
        <mxCell id="tZhHeFERiyD3COQi5UW2-76" value="Proyecciones de Litio&amp;nbsp;" style="whiteSpace=wrap;html=1;aspect=fixed;fontSize=14;fontStyle=1" parent="1" vertex="1">
          <mxGeometry x="267" y="750" width="100" height="100" as="geometry" />
        </mxCell>
        <mxCell id="tZhHeFERiyD3COQi5UW2-77" value="&lt;div style=&quot;font-size: 11px; text-align: start;&quot; data-ccp-timestamp=&quot;1688165123405&quot;&gt;Dm_Miles _Tn_LCE&lt;br style=&quot;font-size: 11px;&quot;&gt;&lt;/div&gt;" style="ellipse;whiteSpace=wrap;html=1;align=center;fontSize=11;" parent="1" vertex="1">
          <mxGeometry x="230" y="950" width="100" height="40" as="geometry" />
        </mxCell>
        <mxCell id="tZhHeFERiyD3COQi5UW2-78" value="" style="endArrow=none;html=1;rounded=0;entryX=0.5;entryY=0;entryDx=0;entryDy=0;exitX=0.5;exitY=1;exitDx=0;exitDy=0;" parent="1" source="tZhHeFERiyD3COQi5UW2-76" target="tZhHeFERiyD3COQi5UW2-77" edge="1">
          <mxGeometry width="50" height="50" relative="1" as="geometry">
            <mxPoint x="317" y="855" as="sourcePoint" />
            <mxPoint x="392" y="705" as="targetPoint" />
          </mxGeometry>
        </mxCell>
        <mxCell id="tZhHeFERiyD3COQi5UW2-79" value="Año" style="ellipse;whiteSpace=wrap;html=1;align=center;fontStyle=5;fontSize=19;" parent="1" vertex="1">
          <mxGeometry x="147.5" y="900" width="100" height="40" as="geometry" />
        </mxCell>
        <mxCell id="tZhHeFERiyD3COQi5UW2-80" value="" style="endArrow=none;html=1;rounded=0;exitX=0.25;exitY=1;exitDx=0;exitDy=0;" parent="1" source="tZhHeFERiyD3COQi5UW2-76" target="tZhHeFERiyD3COQi5UW2-79" edge="1">
          <mxGeometry width="50" height="50" relative="1" as="geometry">
            <mxPoint x="287" y="845" as="sourcePoint" />
            <mxPoint x="272" y="727" as="targetPoint" />
          </mxGeometry>
        </mxCell>
        <mxCell id="tZhHeFERiyD3COQi5UW2-81" value="&lt;div style=&quot;font-size: medium; text-align: start;&quot; data-ccp-timestamp=&quot;1688165123405&quot;&gt;Tipo&lt;br&gt;&lt;/div&gt;" style="ellipse;whiteSpace=wrap;html=1;align=center;" parent="1" vertex="1">
          <mxGeometry x="480" y="910" width="100" height="40" as="geometry" />
        </mxCell>
        <mxCell id="tZhHeFERiyD3COQi5UW2-82" value="" style="endArrow=none;html=1;rounded=0;entryX=0;entryY=0.5;entryDx=0;entryDy=0;exitX=0.75;exitY=1;exitDx=0;exitDy=0;" parent="1" source="tZhHeFERiyD3COQi5UW2-76" target="tZhHeFERiyD3COQi5UW2-81" edge="1">
          <mxGeometry width="50" height="50" relative="1" as="geometry">
            <mxPoint x="322" y="745" as="sourcePoint" />
            <mxPoint x="402" y="755" as="targetPoint" />
          </mxGeometry>
        </mxCell>
        <mxCell id="tZhHeFERiyD3COQi5UW2-86" style="edgeStyle=orthogonalEdgeStyle;rounded=0;orthogonalLoop=1;jettySize=auto;html=1;exitX=0;exitY=0.5;exitDx=0;exitDy=0;entryX=0.5;entryY=0;entryDx=0;entryDy=0;" parent="1" source="tZhHeFERiyD3COQi5UW2-83" target="tZhHeFERiyD3COQi5UW2-76" edge="1">
          <mxGeometry relative="1" as="geometry" />
        </mxCell>
        <mxCell id="tZhHeFERiyD3COQi5UW2-83" value="Obtiene" style="shape=rhombus;perimeter=rhombusPerimeter;whiteSpace=wrap;html=1;align=center;" parent="1" vertex="1">
          <mxGeometry x="350" y="620" width="110" height="60" as="geometry" />
        </mxCell>
        <mxCell id="tZhHeFERiyD3COQi5UW2-87" value="N" style="text;strokeColor=none;align=center;fillColor=none;html=1;verticalAlign=middle;whiteSpace=wrap;rounded=0;" parent="1" vertex="1">
          <mxGeometry x="267" y="720" width="60" height="30" as="geometry" />
        </mxCell>
        <mxCell id="tZhHeFERiyD3COQi5UW2-103" value="Proyectos Litio" style="whiteSpace=wrap;html=1;aspect=fixed;fontSize=14;fontStyle=1" parent="1" vertex="1">
          <mxGeometry x="1165" y="305" width="100" height="100" as="geometry" />
        </mxCell>
        <mxCell id="tZhHeFERiyD3COQi5UW2-104" value="&lt;div style=&quot;font-size: 12px; text-align: start;&quot; data-ccp-timestamp=&quot;1688165123405&quot;&gt;Produccion_&lt;/div&gt;&lt;div style=&quot;font-size: 12px; text-align: start;&quot; data-ccp-timestamp=&quot;1688165123405&quot;&gt;tns_LCE&lt;br style=&quot;font-size: 12px;&quot;&gt;&lt;/div&gt;" style="ellipse;whiteSpace=wrap;html=1;align=center;fontSize=12;" parent="1" vertex="1">
          <mxGeometry x="1350" y="295" width="100" height="40" as="geometry" />
        </mxCell>
        <mxCell id="tZhHeFERiyD3COQi5UW2-105" value="" style="endArrow=none;html=1;rounded=0;exitX=1;exitY=0.5;exitDx=0;exitDy=0;" parent="1" source="tZhHeFERiyD3COQi5UW2-103" edge="1">
          <mxGeometry width="50" height="50" relative="1" as="geometry">
            <mxPoint x="1260" y="347" as="sourcePoint" />
            <mxPoint x="1350" y="315" as="targetPoint" />
          </mxGeometry>
        </mxCell>
        <mxCell id="tZhHeFERiyD3COQi5UW2-106" value="Proyecto" style="ellipse;whiteSpace=wrap;html=1;align=center;fontStyle=5;fontSize=18;" parent="1" vertex="1">
          <mxGeometry x="1340" y="160" width="100" height="40" as="geometry" />
        </mxCell>
        <mxCell id="tZhHeFERiyD3COQi5UW2-107" value="" style="endArrow=none;html=1;rounded=0;exitX=0.993;exitY=0.152;exitDx=0;exitDy=0;exitPerimeter=0;" parent="1" source="tZhHeFERiyD3COQi5UW2-103" target="tZhHeFERiyD3COQi5UW2-106" edge="1">
          <mxGeometry width="50" height="50" relative="1" as="geometry">
            <mxPoint x="1270" y="345" as="sourcePoint" />
            <mxPoint x="1165" y="282" as="targetPoint" />
          </mxGeometry>
        </mxCell>
        <mxCell id="tZhHeFERiyD3COQi5UW2-108" value="&lt;div style=&quot;font-size: medium; text-align: start;&quot; data-ccp-timestamp=&quot;1688165123405&quot;&gt;Pais&lt;br&gt;&lt;/div&gt;" style="ellipse;whiteSpace=wrap;html=1;align=center;fontStyle=0" parent="1" vertex="1">
          <mxGeometry x="1350" y="240" width="100" height="40" as="geometry" />
        </mxCell>
        <mxCell id="tZhHeFERiyD3COQi5UW2-109" value="" style="endArrow=none;html=1;rounded=0;entryX=0;entryY=0.5;entryDx=0;entryDy=0;exitX=0.993;exitY=0.408;exitDx=0;exitDy=0;exitPerimeter=0;" parent="1" source="tZhHeFERiyD3COQi5UW2-103" target="tZhHeFERiyD3COQi5UW2-108" edge="1">
          <mxGeometry width="50" height="50" relative="1" as="geometry">
            <mxPoint x="1215" y="300" as="sourcePoint" />
            <mxPoint x="1295" y="310" as="targetPoint" />
          </mxGeometry>
        </mxCell>
        <mxCell id="tZhHeFERiyD3COQi5UW2-110" value="N" style="text;strokeColor=none;align=center;fillColor=none;html=1;verticalAlign=middle;whiteSpace=wrap;rounded=0;" parent="1" vertex="1">
          <mxGeometry x="1120" y="335" width="60" height="30" as="geometry" />
        </mxCell>
        <mxCell id="tZhHeFERiyD3COQi5UW2-116" style="edgeStyle=orthogonalEdgeStyle;rounded=0;orthogonalLoop=1;jettySize=auto;html=1;exitX=1;exitY=0.5;exitDx=0;exitDy=0;" parent="1" source="tZhHeFERiyD3COQi5UW2-111" target="tZhHeFERiyD3COQi5UW2-103" edge="1">
          <mxGeometry relative="1" as="geometry" />
        </mxCell>
        <mxCell id="tZhHeFERiyD3COQi5UW2-111" value="Tiene" style="shape=rhombus;perimeter=rhombusPerimeter;whiteSpace=wrap;html=1;align=center;" parent="1" vertex="1">
          <mxGeometry x="960" y="370" width="110" height="60" as="geometry" />
        </mxCell>
        <mxCell id="tZhHeFERiyD3COQi5UW2-118" value="&lt;div style=&quot;font-size: 11px; text-align: start;&quot; data-ccp-timestamp=&quot;1688165123405&quot;&gt;Latitud&lt;br style=&quot;font-size: 11px;&quot;&gt;&lt;/div&gt;" style="ellipse;whiteSpace=wrap;html=1;align=center;fontSize=11;" parent="1" vertex="1">
          <mxGeometry x="1450" y="321" width="100" height="40" as="geometry" />
        </mxCell>
        <mxCell id="tZhHeFERiyD3COQi5UW2-119" value="&lt;div style=&quot;font-size: 11px; text-align: start;&quot; data-ccp-timestamp=&quot;1688165123405&quot;&gt;Longitud&lt;br style=&quot;font-size: 11px;&quot;&gt;&lt;/div&gt;" style="ellipse;whiteSpace=wrap;html=1;align=center;fontSize=11;" parent="1" vertex="1">
          <mxGeometry x="1450" y="405" width="100" height="40" as="geometry" />
        </mxCell>
        <mxCell id="tZhHeFERiyD3COQi5UW2-120" value="&lt;div style=&quot;font-size: 12px; text-align: start;&quot; data-ccp-timestamp=&quot;1688165123405&quot;&gt;Tipo&lt;br style=&quot;font-size: 12px;&quot;&gt;&lt;/div&gt;" style="ellipse;whiteSpace=wrap;html=1;align=center;fontSize=12;fontStyle=0" parent="1" vertex="1">
          <mxGeometry x="1350" y="475" width="100" height="40" as="geometry" />
        </mxCell>
        <mxCell id="tZhHeFERiyD3COQi5UW2-121" value="&lt;div style=&quot;font-size: 11px; text-align: start;&quot; data-ccp-timestamp=&quot;1688165123405&quot;&gt;Año_Inicio&lt;br style=&quot;font-size: 11px;&quot;&gt;&lt;/div&gt;" style="ellipse;whiteSpace=wrap;html=1;align=center;fontSize=11;" parent="1" vertex="1">
          <mxGeometry x="1350" y="535" width="100" height="40" as="geometry" />
        </mxCell>
        <mxCell id="tZhHeFERiyD3COQi5UW2-124" value="" style="endArrow=none;html=1;rounded=0;exitX=0.986;exitY=0.586;exitDx=0;exitDy=0;exitPerimeter=0;entryX=0;entryY=0.5;entryDx=0;entryDy=0;" parent="1" source="tZhHeFERiyD3COQi5UW2-103" target="jBoP-B3VJUFIaA_fRabb-1" edge="1">
          <mxGeometry width="50" height="50" relative="1" as="geometry">
            <mxPoint x="1265" y="415" as="sourcePoint" />
            <mxPoint x="1350" y="375" as="targetPoint" />
          </mxGeometry>
        </mxCell>
        <mxCell id="tZhHeFERiyD3COQi5UW2-125" value="" style="endArrow=none;html=1;rounded=0;entryX=0;entryY=0.5;entryDx=0;entryDy=0;exitX=1;exitY=0.5;exitDx=0;exitDy=0;" parent="1" source="jBoP-B3VJUFIaA_fRabb-1" target="tZhHeFERiyD3COQi5UW2-119" edge="1">
          <mxGeometry width="50" height="50" relative="1" as="geometry">
            <mxPoint x="1260" y="365" as="sourcePoint" />
            <mxPoint x="1370" y="335" as="targetPoint" />
          </mxGeometry>
        </mxCell>
        <mxCell id="tZhHeFERiyD3COQi5UW2-126" value="" style="endArrow=none;html=1;rounded=0;exitX=0.994;exitY=0.834;exitDx=0;exitDy=0;entryX=0;entryY=0.5;entryDx=0;entryDy=0;exitPerimeter=0;" parent="1" source="tZhHeFERiyD3COQi5UW2-103" target="tZhHeFERiyD3COQi5UW2-120" edge="1">
          <mxGeometry width="50" height="50" relative="1" as="geometry">
            <mxPoint x="1295" y="385" as="sourcePoint" />
            <mxPoint x="1380" y="345" as="targetPoint" />
          </mxGeometry>
        </mxCell>
        <mxCell id="tZhHeFERiyD3COQi5UW2-127" value="" style="endArrow=none;html=1;rounded=0;exitX=1;exitY=1;exitDx=0;exitDy=0;entryX=0;entryY=0.375;entryDx=0;entryDy=0;entryPerimeter=0;" parent="1" source="tZhHeFERiyD3COQi5UW2-103" target="tZhHeFERiyD3COQi5UW2-121" edge="1">
          <mxGeometry width="50" height="50" relative="1" as="geometry">
            <mxPoint x="1305" y="395" as="sourcePoint" />
            <mxPoint x="1390" y="355" as="targetPoint" />
          </mxGeometry>
        </mxCell>
        <mxCell id="tZhHeFERiyD3COQi5UW2-139" value="Pais" style="whiteSpace=wrap;html=1;aspect=fixed;fontSize=20;fontStyle=1" parent="1" vertex="1">
          <mxGeometry x="804" y="544.5" width="100" height="100" as="geometry" />
        </mxCell>
        <mxCell id="tZhHeFERiyD3COQi5UW2-140" value="N" style="text;strokeColor=none;align=center;fillColor=none;html=1;verticalAlign=middle;whiteSpace=wrap;rounded=0;" parent="1" vertex="1">
          <mxGeometry x="759" y="567.5" width="60" height="30" as="geometry" />
        </mxCell>
        <mxCell id="tZhHeFERiyD3COQi5UW2-141" value="N" style="text;strokeColor=none;align=center;fillColor=none;html=1;verticalAlign=middle;whiteSpace=wrap;rounded=0;" parent="1" vertex="1">
          <mxGeometry x="759" y="536" width="60" height="30" as="geometry" />
        </mxCell>
        <mxCell id="tZhHeFERiyD3COQi5UW2-147" value="&lt;div style=&quot;font-size: medium; text-align: start;&quot; data-ccp-timestamp=&quot;1688165123405&quot;&gt;Pot_avg_lt&lt;br&gt;&lt;/div&gt;" style="ellipse;whiteSpace=wrap;html=1;align=center;" parent="1" vertex="1">
          <mxGeometry x="659" y="684.5" width="100" height="40" as="geometry" />
        </mxCell>
        <mxCell id="tZhHeFERiyD3COQi5UW2-148" value="&lt;div style=&quot;font-size: medium; text-align: start;&quot; data-ccp-timestamp=&quot;1688165123405&quot;&gt;Pot_avg_pr&lt;br&gt;&lt;/div&gt;" style="ellipse;whiteSpace=wrap;html=1;align=center;" parent="1" vertex="1">
          <mxGeometry x="739" y="734.5" width="100" height="40" as="geometry" />
        </mxCell>
        <mxCell id="tZhHeFERiyD3COQi5UW2-149" value="&lt;div style=&quot;font-size: medium; text-align: start;&quot; data-ccp-timestamp=&quot;1688165123405&quot;&gt;Por_avg_ec&lt;br&gt;&lt;/div&gt;" style="ellipse;whiteSpace=wrap;html=1;align=center;" parent="1" vertex="1">
          <mxGeometry x="839" y="774.5" width="100" height="40" as="geometry" />
        </mxCell>
        <mxCell id="tZhHeFERiyD3COQi5UW2-150" value="&lt;div style=&quot;font-size: medium; text-align: start;&quot; data-ccp-timestamp=&quot;1688165123405&quot;&gt;Reliab_index&lt;br&gt;&lt;/div&gt;" style="ellipse;whiteSpace=wrap;html=1;align=center;" parent="1" vertex="1">
          <mxGeometry x="949" y="734.5" width="100" height="40" as="geometry" />
        </mxCell>
        <mxCell id="tZhHeFERiyD3COQi5UW2-151" value="&lt;div style=&quot;font-size: 10px; text-align: start;&quot; data-ccp-timestamp=&quot;1688165123405&quot;&gt;Inst_pv_capacity&lt;br style=&quot;font-size: 10px;&quot;&gt;&lt;/div&gt;" style="ellipse;whiteSpace=wrap;html=1;align=center;fontSize=10;" parent="1" vertex="1">
          <mxGeometry x="999" y="684.5" width="100" height="40" as="geometry" />
        </mxCell>
        <mxCell id="tZhHeFERiyD3COQi5UW2-152" value="&lt;div style=&quot;font-size: 10px; text-align: start;&quot; data-ccp-timestamp=&quot;1688165123405&quot;&gt;Avg_seaso_index&lt;br style=&quot;font-size: 10px;&quot;&gt;&lt;/div&gt;" style="ellipse;whiteSpace=wrap;html=1;align=center;fontSize=10;" parent="1" vertex="1">
          <mxGeometry x="1069" y="621.5" width="100" height="40" as="geometry" />
        </mxCell>
        <mxCell id="tZhHeFERiyD3COQi5UW2-154" value="" style="endArrow=none;html=1;rounded=0;exitX=1;exitY=1;exitDx=0;exitDy=0;entryX=0;entryY=1;entryDx=0;entryDy=0;" parent="1" target="tZhHeFERiyD3COQi5UW2-139" edge="1">
          <mxGeometry width="50" height="50" relative="1" as="geometry">
            <mxPoint x="754" y="699.5" as="sourcePoint" />
            <mxPoint x="839" y="649.5" as="targetPoint" />
          </mxGeometry>
        </mxCell>
        <mxCell id="tZhHeFERiyD3COQi5UW2-155" value="" style="endArrow=none;html=1;rounded=0;exitX=0.5;exitY=0;exitDx=0;exitDy=0;entryX=0.25;entryY=1;entryDx=0;entryDy=0;" parent="1" source="tZhHeFERiyD3COQi5UW2-148" target="tZhHeFERiyD3COQi5UW2-139" edge="1">
          <mxGeometry width="50" height="50" relative="1" as="geometry">
            <mxPoint x="739" y="664.5" as="sourcePoint" />
            <mxPoint x="824" y="614.5" as="targetPoint" />
          </mxGeometry>
        </mxCell>
        <mxCell id="tZhHeFERiyD3COQi5UW2-156" value="" style="endArrow=none;html=1;rounded=0;exitX=0.5;exitY=0;exitDx=0;exitDy=0;entryX=0.5;entryY=1;entryDx=0;entryDy=0;" parent="1" source="tZhHeFERiyD3COQi5UW2-149" target="tZhHeFERiyD3COQi5UW2-139" edge="1">
          <mxGeometry width="50" height="50" relative="1" as="geometry">
            <mxPoint x="749" y="674.5" as="sourcePoint" />
            <mxPoint x="834" y="624.5" as="targetPoint" />
          </mxGeometry>
        </mxCell>
        <mxCell id="tZhHeFERiyD3COQi5UW2-157" value="" style="endArrow=none;html=1;rounded=0;exitX=0;exitY=0;exitDx=0;exitDy=0;entryX=0.75;entryY=1;entryDx=0;entryDy=0;" parent="1" source="tZhHeFERiyD3COQi5UW2-150" target="tZhHeFERiyD3COQi5UW2-139" edge="1">
          <mxGeometry width="50" height="50" relative="1" as="geometry">
            <mxPoint x="759" y="684.5" as="sourcePoint" />
            <mxPoint x="844" y="634.5" as="targetPoint" />
          </mxGeometry>
        </mxCell>
        <mxCell id="tZhHeFERiyD3COQi5UW2-158" value="" style="endArrow=none;html=1;rounded=0;exitX=0;exitY=0;exitDx=0;exitDy=0;entryX=1;entryY=0.75;entryDx=0;entryDy=0;" parent="1" source="tZhHeFERiyD3COQi5UW2-151" target="tZhHeFERiyD3COQi5UW2-139" edge="1">
          <mxGeometry width="50" height="50" relative="1" as="geometry">
            <mxPoint x="769" y="694.5" as="sourcePoint" />
            <mxPoint x="854" y="644.5" as="targetPoint" />
          </mxGeometry>
        </mxCell>
        <mxCell id="tZhHeFERiyD3COQi5UW2-159" value="" style="endArrow=none;html=1;rounded=0;exitX=0;exitY=0.5;exitDx=0;exitDy=0;entryX=1;entryY=0.5;entryDx=0;entryDy=0;" parent="1" source="tZhHeFERiyD3COQi5UW2-152" target="tZhHeFERiyD3COQi5UW2-139" edge="1">
          <mxGeometry width="50" height="50" relative="1" as="geometry">
            <mxPoint x="779" y="704.5" as="sourcePoint" />
            <mxPoint x="864" y="654.5" as="targetPoint" />
          </mxGeometry>
        </mxCell>
        <mxCell id="jBoP-B3VJUFIaA_fRabb-1" value="&lt;div style=&quot;font-size: 11px; text-align: start;&quot; data-ccp-timestamp=&quot;1688165123405&quot;&gt;Ubicación&lt;br style=&quot;font-size: 11px;&quot;&gt;&lt;/div&gt;" style="ellipse;whiteSpace=wrap;html=1;align=center;fontSize=11;" parent="1" vertex="1">
          <mxGeometry x="1340" y="370" width="100" height="40" as="geometry" />
        </mxCell>
        <mxCell id="jBoP-B3VJUFIaA_fRabb-3" value="" style="endArrow=none;html=1;rounded=0;entryX=0;entryY=0.5;entryDx=0;entryDy=0;exitX=1;exitY=0.5;exitDx=0;exitDy=0;" parent="1" source="jBoP-B3VJUFIaA_fRabb-1" target="tZhHeFERiyD3COQi5UW2-118" edge="1">
          <mxGeometry width="50" height="50" relative="1" as="geometry">
            <mxPoint x="1450" y="400" as="sourcePoint" />
            <mxPoint x="1460" y="435" as="targetPoint" />
          </mxGeometry>
        </mxCell>
        <mxCell id="7PnfqKIHkrlbUq1aAJIO-1" value="Electricity_&lt;br&gt;generation_(GWh)" style="ellipse;whiteSpace=wrap;html=1;align=center;" parent="1" vertex="1">
          <mxGeometry x="-20" y="460" width="110" height="60" as="geometry" />
        </mxCell>
        <mxCell id="7PnfqKIHkrlbUq1aAJIO-3" value="" style="endArrow=none;html=1;rounded=0;entryX=1;entryY=0.5;entryDx=0;entryDy=0;exitX=0;exitY=0.75;exitDx=0;exitDy=0;" parent="1" source="AUGBW6buldF1Hwq6hiQr-39" edge="1">
          <mxGeometry width="50" height="50" relative="1" as="geometry">
            <mxPoint x="140" y="490" as="sourcePoint" />
            <mxPoint x="90" y="490" as="targetPoint" />
          </mxGeometry>
        </mxCell>
        <mxCell id="-KKbgVs9NKPTOoE3h87c-1" value="ID_Gen" style="ellipse;whiteSpace=wrap;html=1;align=center;fontStyle=5;fontSize=19;" parent="1" vertex="1">
          <mxGeometry x="34" y="536" width="110" height="44" as="geometry" />
        </mxCell>
        <mxCell id="-KKbgVs9NKPTOoE3h87c-2" value="" style="endArrow=none;html=1;rounded=0;entryX=1;entryY=0;entryDx=0;entryDy=0;exitX=0.107;exitY=1.006;exitDx=0;exitDy=0;exitPerimeter=0;" parent="1" source="AUGBW6buldF1Hwq6hiQr-39" target="-KKbgVs9NKPTOoE3h87c-1" edge="1">
          <mxGeometry width="50" height="50" relative="1" as="geometry">
            <mxPoint x="140" y="460" as="sourcePoint" />
            <mxPoint x="100" y="500" as="targetPoint" />
          </mxGeometry>
        </mxCell>
        <mxCell id="-KKbgVs9NKPTOoE3h87c-6" value="" style="endArrow=none;html=1;rounded=0;exitX=1;exitY=0.25;exitDx=0;exitDy=0;entryX=0;entryY=0.5;entryDx=0;entryDy=0;" parent="1" source="tZhHeFERiyD3COQi5UW2-139" target="tZhHeFERiyD3COQi5UW2-21" edge="1">
          <mxGeometry width="50" height="50" relative="1" as="geometry">
            <mxPoint x="799" y="594.5" as="sourcePoint" />
            <mxPoint x="1070" y="564.5" as="targetPoint" />
          </mxGeometry>
        </mxCell>
        <mxCell id="-KKbgVs9NKPTOoE3h87c-9" value="ID_Prod" style="ellipse;whiteSpace=wrap;html=1;align=center;fontStyle=5;fontSize=17;" parent="1" vertex="1">
          <mxGeometry x="125" y="25" width="100" height="40" as="geometry" />
        </mxCell>
        <mxCell id="-KKbgVs9NKPTOoE3h87c-10" value="" style="endArrow=none;html=1;rounded=0;entryX=1;entryY=0.5;entryDx=0;entryDy=0;exitX=0.5;exitY=0;exitDx=0;exitDy=0;" parent="1" source="tZhHeFERiyD3COQi5UW2-52" target="-KKbgVs9NKPTOoE3h87c-9" edge="1">
          <mxGeometry width="50" height="50" relative="1" as="geometry">
            <mxPoint x="350" y="80" as="sourcePoint" />
            <mxPoint x="280" y="40" as="targetPoint" />
          </mxGeometry>
        </mxCell>
        <mxCell id="-KKbgVs9NKPTOoE3h87c-11" value="ID_Export" style="ellipse;whiteSpace=wrap;html=1;align=center;fontStyle=5;fontSize=17;" parent="1" vertex="1">
          <mxGeometry x="610" y="25" width="100" height="40" as="geometry" />
        </mxCell>
        <mxCell id="-KKbgVs9NKPTOoE3h87c-12" value="" style="endArrow=none;html=1;rounded=0;entryX=1;entryY=0.5;entryDx=0;entryDy=0;exitX=0.5;exitY=0;exitDx=0;exitDy=0;" parent="1" source="tZhHeFERiyD3COQi5UW2-12" target="-KKbgVs9NKPTOoE3h87c-11" edge="1">
          <mxGeometry width="50" height="50" relative="1" as="geometry">
            <mxPoint x="794" y="75" as="sourcePoint" />
            <mxPoint x="714" y="30" as="targetPoint" />
          </mxGeometry>
        </mxCell>
        <mxCell id="-KKbgVs9NKPTOoE3h87c-13" value="N" style="text;strokeColor=none;align=center;fillColor=none;html=1;verticalAlign=middle;whiteSpace=wrap;rounded=0;" parent="1" vertex="1">
          <mxGeometry x="860" y="510" width="60" height="30" as="geometry" />
        </mxCell>
        <mxCell id="-KKbgVs9NKPTOoE3h87c-14" value="N" style="text;strokeColor=none;align=center;fillColor=none;html=1;verticalAlign=middle;whiteSpace=wrap;rounded=0;" parent="1" vertex="1">
          <mxGeometry x="804" y="509" width="60" height="30" as="geometry" />
        </mxCell>
        <mxCell id="-KKbgVs9NKPTOoE3h87c-15" value="&lt;div style=&quot;font-size: 11px; text-align: start;&quot; data-ccp-timestamp=&quot;1688165123405&quot;&gt;Om_Miles_Tn _LCE&lt;br style=&quot;font-size: 11px;&quot;&gt;&lt;/div&gt;" style="ellipse;whiteSpace=wrap;html=1;align=center;fontSize=11;" parent="1" vertex="1">
          <mxGeometry x="350" y="950" width="110" height="40" as="geometry" />
        </mxCell>
        <mxCell id="-KKbgVs9NKPTOoE3h87c-16" value="" style="endArrow=none;html=1;rounded=0;entryX=0.5;entryY=0;entryDx=0;entryDy=0;exitX=0.6;exitY=1.023;exitDx=0;exitDy=0;exitPerimeter=0;" parent="1" source="tZhHeFERiyD3COQi5UW2-76" target="-KKbgVs9NKPTOoE3h87c-15" edge="1">
          <mxGeometry width="50" height="50" relative="1" as="geometry">
            <mxPoint x="357" y="860" as="sourcePoint" />
            <mxPoint x="490" y="940" as="targetPoint" />
          </mxGeometry>
        </mxCell>
        <mxCell id="-KKbgVs9NKPTOoE3h87c-17" value="&lt;div style=&quot;font-size: medium; text-align: start;&quot; data-ccp-timestamp=&quot;1688165123405&quot;&gt;Pais&lt;br&gt;&lt;/div&gt;" style="ellipse;whiteSpace=wrap;html=1;align=center;" parent="1" vertex="1">
          <mxGeometry x="550" y="850" width="100" height="40" as="geometry" />
        </mxCell>
        <mxCell id="-KKbgVs9NKPTOoE3h87c-18" value="" style="endArrow=none;html=1;rounded=0;entryX=-0.014;entryY=0.368;entryDx=0;entryDy=0;exitX=1;exitY=0.75;exitDx=0;exitDy=0;entryPerimeter=0;" parent="1" source="tZhHeFERiyD3COQi5UW2-76" target="-KKbgVs9NKPTOoE3h87c-17" edge="1">
          <mxGeometry width="50" height="50" relative="1" as="geometry">
            <mxPoint x="357" y="860" as="sourcePoint" />
            <mxPoint x="490" y="940" as="targetPoint" />
          </mxGeometry>
        </mxCell>
      </root>
    </mxGraphModel>
  </diagram>
</mxfile>
